<svg width="24" height="24" viewBox="0 0 24 24" fill="none" xmlns="http://www.w3.org/2000/svg">
<path d="M17.9072 12.4131C17.9017 12.6068 17.863 12.7839 17.791 12.9443C17.7191 13.1048 17.6084 13.2598 17.459 13.4092L9.1416 21.4609C8.90365 21.6989 8.61035 21.8179 8.26172 21.8179C8.0293 21.8179 7.81901 21.7625 7.63086 21.6519C7.43717 21.5412 7.28499 21.3918 7.17432 21.2036C7.05811 21.0155 7 20.8052 7 20.5728C7 20.2297 7.13005 19.9281 7.39014 19.668L14.9106 12.4214L7.39014 5.1665C7.13005 4.90088 7 4.59928 7 4.26172C7 4.02376 7.05811 3.81071 7.17432 3.62256C7.28499 3.43441 7.43718 3.28499 7.63086 3.17432C7.81901 3.0581 8.0293 3 8.26172 3C8.61035 3 8.90365 3.12174 9.1416 3.36523L17.459 11.417C17.6139 11.5664 17.7274 11.7214 17.7993 11.8818C17.8713 12.0479 17.9072 12.2249 17.9072 12.4131Z" fill="#1A1B22"/>
</svg>
